<!--?xml version="1.0" standalone="no"?-->
<svg id="sw-js-blob-svg" viewBox="0 0 100 100" xmlns="http://www.w3.org/2000/svg" version="1.1">
    <path d="M25.6,-34.2C32.7,-30.1,37.7,-22,38.6,-13.8C39.5,-5.6,36.3,2.6,32.9,10C29.6,17.5,26,24.2,20.5,28.4C14.9,32.6,7.5,34.4,0.5,33.8C-6.5,33.2,-13.1,30.1,-20.2,26.4C-27.4,22.6,-35.2,18.3,-39.4,11.3C-43.7,4.4,-44.5,-5.2,-42.1,-14.1C-39.8,-23,-34.2,-31.2,-26.7,-35.2C-19.1,-39.2,-9.6,-38.9,-0.2,-38.7C9.2,-38.5,18.5,-38.3,25.6,-34.2Z" width="100%" height="100%" transform="translate(50 50)" style="transition: 0.3s;" stroke-width="0">
    </path>
</svg>